<?xml version="1.0" encoding="UTF-8"?><svg id="a" xmlns="http://www.w3.org/2000/svg" viewBox="0 0 44.76 33.92"><defs><style>.e{fill:#5865f2;}</style></defs><g id="b"><g id="c"><g id="d"><path class="e" d="M37.91,2.84c-2.94-1.35-6.04-2.3-9.23-2.84-.44,.78-.83,1.58-1.18,2.4-3.4-.51-6.85-.51-10.25,0-.35-.82-.75-1.62-1.18-2.4-3.19,.54-6.3,1.5-9.24,2.85C.98,11.49-.6,19.92,.19,28.24H.19c3.42,2.53,7.25,4.45,11.32,5.69,.92-1.23,1.73-2.54,2.43-3.91-1.32-.49-2.6-1.1-3.82-1.82,.32-.23,.63-.47,.94-.7,7.17,3.37,15.47,3.37,22.64,0,.31,.25,.62,.49,.94,.7-1.22,.72-2.5,1.33-3.83,1.83,.7,1.37,1.51,2.68,2.43,3.91,4.08-1.23,7.91-3.15,11.33-5.68h0c.93-9.64-1.59-17.99-6.65-25.4ZM14.94,23.12c-2.21,0-4.03-2-4.03-4.47s1.76-4.48,4.02-4.48,4.07,2.02,4.03,4.48-1.78,4.47-4.03,4.47Zm14.87,0c-2.21,0-4.03-2-4.03-4.47s1.76-4.48,4.03-4.48,4.06,2.02,4.02,4.48-1.77,4.47-4.02,4.47Z"/></g></g></g></svg>