<?xml version="1.0" encoding="UTF-8"?><svg id="a" xmlns="http://www.w3.org/2000/svg" xmlns:xlink="http://www.w3.org/1999/xlink" viewBox="0 0 1031.11 165.85"><defs><style>.m{fill:url(#j);}.n{fill:url(#h);}.o{fill:url(#i);}.p{fill:url(#l);}.q{fill:url(#f);}.r{fill:url(#g);}.s{fill:url(#e);}.t{fill:url(#d);}.u{fill:url(#b);}.v{fill:url(#c);}.w{fill:url(#k);}</style><linearGradient id="b" x1="65.5" y1="1.44" x2="65.5" y2="153.44" gradientUnits="userSpaceOnUse"><stop offset="0" stop-color="#ff7bac"/><stop offset=".58" stop-color="#ff9483"/><stop offset="1" stop-color="#ffa46a"/></linearGradient><linearGradient id="c" x1="153.15" y1="3.44" x2="153.15" y2="153.35" xlink:href="#b"/><linearGradient id="d" x1="228.47" y1=".39" x2="228.47" y2="152.95" xlink:href="#b"/><linearGradient id="e" x1="324.42" y1="2.3" x2="324.42" y2="152.44" xlink:href="#b"/><linearGradient id="f" x1="452.26" y1="1.63" x2="452.26" y2="153.33" xlink:href="#b"/><linearGradient id="g" x1="550.5" y1="2.44" x2="550.5" y2="153.62" xlink:href="#b"/><linearGradient id="h" x1="632.5" y1="2.3" x2="632.5" y2="152.44" xlink:href="#b"/><linearGradient id="i" x1="724.5" y1="2.3" x2="724.5" y2="153.36" xlink:href="#b"/><linearGradient id="j" x1="809.27" y1="2.19" x2="809.27" y2="152.44" xlink:href="#b"/><linearGradient id="k" x1="894.6" y1="2.3" x2="894.6" y2="152.44" xlink:href="#b"/><linearGradient id="l" x1="981.72" y1="0" x2="981.72" y2="156.12" xlink:href="#b"/></defs><g><path d="M30,160.44C15.45,112.56,24.92,59.56,7,12.44c8.98-1,25.76-6.02,27,7,8.99,35.21,6.07,71.12,7,107,4.72-39,25.23-74.92,26-115,7,2,13,1,20,1,10.78,38.76,5.07,78.5,9,118,5.16-39.63,24.57-76.8,22-117,7,1,13-2,20-1-1.23,50.98-23.48,99.97-29,150-26.46,1.64-24.99,.82-30-25-6.23-28.78,.18-58.06-3-87-8.32,36.99-24.22,72.57-25,110H30Z"/><path d="M171,12.44c12.8,48.5-13.23,100.31,0,149-53.45,14.74-2.65-114.47-21-149h21Z"/><path d="M194,12.44c30.26-3.62,69.88-3.91,80,32,11.03,38.94,5.87,101.11-37,117-14,1-29,0-43,0-11.64-48.81,9.78-99.82,0-149h0Zm17,119c16.52,2.86,34.91,2.26,38-18,14.06-29.27,15.26-81.02-30-75,.45,31.64-8.62,61.5-8,93h0Z"/><path d="M363,102.44c-16-1-32-4-48-7-2,12-3,24-3,36,18,0,37,4,55,3v27h-72c-9.66-49.71,10.04-99.4,0-149,24-2,48,1,72,0,2,10,3,21,3,31-17,1-33-3-50-3,0,9,1,18-1,27,16,1,31,6,47,6,0,10-3,19-3,29h0Z"/><path d="M420,12.44c23.89,.45,55.67-8.75,73,12,11,19,11,48-8,62,21.01,16.12,18.19,69.09-11,74-18,2-36,1-54,1-9.91-49.93,9-99.14,0-149h0Zm46,59c17.96,3.05,19.64-30.88,2-32-8,0-15-1-23-2,0,10,0,21-2,31,8,0,16,1,23,3Zm-29,61c10.64,1.36,26.52,6.53,35-2,4-9,7-22-2-29-9-6-21-5-31-7-1,13-3,25-2,38h0Z"/><path d="M533,125.44c-2,12-5,24-5,36h-20c.03-53.34,31.71-98.3,37-150,9,1,18,1,27,1,17.96,47.97,11.11,101.9,34,149-31.89,6.34-26.02-7.44-35-32-13-1-25-4-38-4h0Zm35-25c-2.07-21.62-2.24-43.9-8-65-1.76,22.49-11.77,40.07-19,61,9,0,18,3,27,4Z"/><path d="M632,40.44c-11-1-21-2-32-2-1-9,0-18-3-26,27-2,55,1,82,0,2,10,2,21,3,31-10,0-19,0-29-1,1.68,39.89-16.09,79.27-6,119h-21c-8.94-40.6,6.29-80.79,6-121h0Z"/><path d="M724,40.44c-30.53-4.29-33.35,7.53-35-28,27.24-2.73,54.7,.66,82,0,1,10,3,21,2,31-9,0-19,0-28-1-.53,39.71-16.03,79.05-6,119h-21c-9.58-40.6,6.19-80.5,6-121h0Z"/><path d="M784,12.44c50.81-17.89,11.22,91.31,17,119,16.47,.71,33.44,3.5,50,3-2,9-2,18,0,27h-67c-8.63-49.85,10.03-99.41,0-149h0Z"/><path d="M933,102.44c-16-1-32-4-48-7-2,12-3,24-3,36,18,0,37,4,55,3v27h-72c-8.22-49.88,9.59-99.43,0-149,24-2,48,1,72,0,2,10,3,21,3,31-17,1-33-3-50-3,0,9,1,18-1,27,16,1,31,6,47,6,0,10-3,19-3,29h0Z"/><path d="M966,114.44c3.13,40.8,63.65,24.1,32-8-13-8-26-13-36-25-10.95-19.96-10.31-48.85,7-65,29.67-22.31,64.29,7.45,62,40-7,1-13-2-20-1,.03-34.03-52.29-19.81-27,7,38.79,15.37,58.93,49.11,37,88-28.61,35.83-77.4,3.2-75-37,7,0,13-1,20,1Z"/></g><g><path class="u" d="M23,151.44C9.74,103.29,19.32,50.21,0,3.44c8-1,17-1,25-2,10,38,9,76,9,115C39.99,77.88,57.97,41.56,60,2.44c7,0,13,2,20,1,10.53,38.28,6.36,78.67,9,118,5.14-33,19.4-65.49,22-100-1.32-19.51,1.86-18.36,20-18-.24,50.54-23.67,98.05-29,150-8,0-16,0-24,0-11.01-36.15-6.32-74.78-9-112-6.11,36.85-24.74,72.52-25,110H23Z"/><path class="v" d="M164,3.44c12.82,49.27-13.27,99.99,0,149-54.07,12.96-1.84-115.75-21-149h21Z"/><path class="t" d="M187,3.44c84.37-19.11,100.9,55.23,74,119-14.09,35.24-42.57,30.56-74,30-9.7-48.54,8.71-100.11,0-149h0Zm17,119c14.35,2.29,30.19,2.84,37-13,14.11-30.03,18.5-86.21-29-80,1.66,31.45-9.6,61.79-8,93h0Z"/><path class="s" d="M356,93.44c-16-1-32-4-48-7-2,12-2,23-2,35,18,3,36,4,54,4,0,9-1,18,1,27h-73c-8.89-49.57,10.12-100.34,0-149,24-3,49,1,73,0,1,10,3,21,2,31-16-1-33-2-49-4,0,9-1,19-2,28,16,1,32,6,48,6-1,10-3,19-4,29h0Z"/><path class="q" d="M413,3.44c19-3,37-2,56,1,30.12,5.42,34.03,57.68,9,73,20.77,14.74,19.24,65.25-8,73-19,5-38,2-57,2-10.19-49.23,10.18-99.78,0-149h0Zm46,59c15.26,2.94,18.61-21.17,9-29-9-6-20-3-30-5,0,10,0,20-2,30,8,2,16,2,23,4Zm-29,61c20.3,3.65,42.53,6.49,38-22-1-5-4-11-9-11-38.21-13.77-26.61,2.8-29,33h0Z"/><path class="r" d="M526,116.44c-2,12-4,23-5,35-7-1-13,2-20,1-.42-52.36,33.67-97.94,37-150,9,0,18,2,27,1,20.62,47.69,9.18,102.95,35,149-35,4.74-25.39-4.53-36-32-13-2-25-3-38-4h0Zm35-25c-2-22-1-44-8-65-2,21-11,41-19,60,9,3,18,3,27,5Z"/><path class="n" d="M625,31.44c-11-2-21-2-32-2,0-9-1-18-3-26,27-3,55,1,82,0,2,10,2,21,3,31-10,1-19-1-29-1,.18,39.77-14.05,79.04-6,119h-21c-9.2-40.87,6.74-80.39,6-121h0Z"/><path class="o" d="M717,31.44c-11-2-21-2-32-2-1-9-1-17-3-26,27-3,55,1,82,0,2,10,1,21,3,31-10,1-19-1-29-1-.53,39.71-16.03,79.05-6,119-50.34,11.71-8.9-92.23-15-121h0Z"/><path class="m" d="M777,3.44c8-2,15-1,23-1,8.04,40.22-5.54,80.01-6,120,16.5-.18,33.55,3.61,50,3-1,9-1,18,0,27h-67c-8.57-49.94,8.74-99.34,0-149h0Z"/><path class="w" d="M926,93.44c-16.15-1.22-32.01-4.39-48-7-2,12-2,23-2,35,18,3,36,4,54,4,0,9-1,18,1,27h-72c-9.71-49.59,7.41-99.14,0-149,24-3,48,1,72,0,1,10,3,21,2,31-16-1-33-2-49-4,0,9-1,19-2,28,16,1,32,6,48,6-1,10-3,19-4,29h0Z"/><path class="p" d="M960,104.44c-2.23,18.24,24.14,35.05,37,19,6-10,2-23-8-28-16-8-34-16-38-34-22.69-70.41,72.01-87.14,73-14-7,0-13-2-20-1,2.18-30.8-49.37-23.63-29,5,37.35,18.81,60.85,41.35,42,85-23.39,41.75-84.07,10.56-77-33,7,2,13,1,20,1Z"/></g></svg>